<?xml version="1.0" standalone="no"?>
<!DOCTYPE svg PUBLIC "-//W3C//DTD SVG 20010904//EN"
 "http://www.w3.org/TR/2001/REC-SVG-20010904/DTD/svg10.dtd">
<svg version="1.0" xmlns="http://www.w3.org/2000/svg"
 width="5000.000000pt" height="5000.000000pt" viewBox="0 0 5000.000000 5000.000000"
 preserveAspectRatio="xMidYMid meet">
<metadata>
Created by potrace 1.16, written by Peter Selinger 2001-2019
</metadata>
<g transform="translate(0.000000,5000.000000) scale(0.100000,-0.100000)"
fill="#000000" stroke="none">
<path d="M25031 48373 c-24 -12 -94 -92 -226 -258 -371 -466 -525 -673 -815
-1100 -90 -132 -270 -393 -400 -580 -872 -1252 -1034 -1488 -1192 -1735 -532
-833 -794 -1394 -1033 -2216 -161 -550 -221 -903 -232 -1364 -22 -926 202
-1409 1250 -2690 769 -941 1424 -1658 1959 -2146 217 -198 634 -565 667 -586
35 -24 108 -23 146 1 59 37 606 550 911 855 446 447 814 854 1388 1536 1319
1567 1566 2053 1543 3040 -11 461 -71 814 -232 1364 -212 728 -430 1222 -837
1899 -201 336 -351 560 -904 1355 -293 422 -642 925 -776 1117 -406 587 -462
666 -759 1076 -158 218 -302 408 -319 423 -37 31 -88 34 -139 9z"/>
<path d="M47100 39394 c-1242 -34 -1988 -76 -2665 -150 -769 -83 -1345 -286
-1813 -636 -116 -87 -330 -292 -419 -403 -248 -307 -425 -674 -548 -1140 -34
-128 -206 -959 -304 -1470 -60 -310 -97 -475 -108 -485 -4 -5 -95 -81 -201
-169 l-194 -161 -86 76 c-615 542 -1246 980 -2112 1466 -2391 1343 -4641 1906
-6765 1693 -2169 -218 -4116 -1308 -5825 -3260 -156 -178 -165 -197 -156 -329
43 -635 251 -1128 627 -1491 166 -160 322 -267 551 -381 251 -123 273 -123
395 13 228 253 313 344 483 513 1192 1187 2551 1874 4080 2064 297 37 429 46
765 53 605 12 1183 -43 1873 -178 2454 -479 4312 -1720 5555 -3710 1228 -1966
1569 -4437 1026 -7439 -77 -428 -204 -1005 -294 -1342 -524 -1949 -1621 -3623
-3320 -5063 -925 -784 -2043 -1499 -3340 -2136 -412 -202 -678 -323 -1275
-579 -814 -349 -1243 -547 -1865 -860 -1597 -806 -2813 -1602 -3875 -2538
-210 -185 -727 -702 -893 -893 -522 -600 -684 -861 -1088 -1747 -100 -221
-185 -402 -188 -402 -3 0 -26 44 -51 97 -56 122 -344 650 -446 820 -223 371
-504 753 -811 1103 -189 216 -592 649 -702 755 -1078 1032 -2502 1982 -4316
2880 -591 292 -975 467 -1740 795 -537 230 -818 357 -1211 550 -3066 1502
-5120 3430 -6181 5805 -282 629 -464 1198 -647 2025 -421 1900 -505 3612 -251
5123 188 1113 559 2111 1127 3026 619 998 1407 1819 2338 2438 976 649 2107
1085 3416 1318 615 109 1133 153 1684 142 332 -7 465 -16 760 -53 1529 -190
2887 -877 4080 -2064 170 -169 255 -260 483 -513 122 -136 144 -136 395 -13
229 114 385 221 551 381 376 363 584 856 627 1491 9 133 0 152 -156 329 -1263
1442 -2629 2398 -4145 2901 -1044 346 -2190 472 -3360 368 -1777 -157 -3594
-803 -5550 -1973 -582 -348 -1068 -697 -1557 -1118 l-177 -152 -193 160 c-106
89 -197 164 -201 169 -11 10 -48 175 -108 485 -98 511 -270 1342 -304 1470
-98 371 -229 679 -394 926 -121 182 -195 272 -347 419 -407 395 -917 639
-1619 774 -229 44 -576 81 -1165 125 -569 43 -942 59 -2041 87 -651 17 -657
17 -690 -2 -41 -24 -59 -56 -59 -105 0 -64 360 -1412 525 -1964 229 -768 518
-1507 778 -1990 216 -402 402 -661 667 -925 262 -263 482 -400 794 -494 209
-64 394 -87 691 -87 268 0 443 16 990 92 447 61 762 122 1309 255 192 46 353
84 357 84 6 0 203 -165 263 -220 5 -5 -52 -80 -126 -167 -1184 -1394 -1966
-3106 -2362 -5173 -167 -874 -261 -1701 -297 -2615 -13 -332 -7 -1153 11
-1450 26 -438 60 -823 106 -1189 14 -109 23 -200 22 -201 -2 -2 -40 -12 -86
-23 l-84 -20 -106 86 c-59 47 -145 118 -192 158 -178 151 -649 529 -740 593
-351 249 -666 364 -1030 378 -452 17 -893 -132 -1415 -480 -238 -159 -584
-405 -805 -571 -390 -294 -975 -752 -1003 -786 -39 -46 -38 -107 3 -153 44
-51 804 -597 1160 -834 731 -487 1334 -771 1811 -853 410 -70 717 -12 1034
197 135 89 252 191 445 389 312 321 527 573 785 921 l120 163 120 -3 120 -2
22 -110 c229 -1127 539 -2192 910 -3130 851 -2150 2565 -4094 5108 -5795 1138
-761 2307 -1405 3850 -2120 3494 -1621 6061 -3758 7725 -6430 229 -368 379
-638 645 -1160 310 -608 712 -1361 744 -1393 50 -51 146 -42 184 16 12 19 112
243 400 897 106 242 387 803 526 1052 323 580 645 1077 1034 1598 1661 2222
4022 4037 7107 5460 3142 1451 5493 3091 7080 4940 308 359 584 722 839 1105
480 719 804 1361 1106 2190 324 888 575 1778 756 2675 28 137 44 199 56 208
11 8 53 12 122 12 l106 -1 120 -162 c259 -349 473 -601 785 -921 316 -324 512
-464 773 -551 212 -71 432 -82 706 -35 477 82 1080 366 1811 853 356 237 1116
783 1160 834 41 46 42 107 3 153 -28 34 -613 492 -1003 786 -221 166 -567 412
-805 571 -522 348 -963 497 -1415 480 -364 -14 -679 -129 -1030 -378 -91 -64
-562 -442 -740 -593 -47 -40 -133 -111 -192 -158 l-106 -86 -84 20 c-46 11
-84 21 -86 23 -1 1 8 92 22 201 46 366 80 751 106 1189 18 297 24 1118 11
1450 -36 914 -130 1741 -297 2615 -396 2067 -1178 3779 -2362 5173 -74 87
-131 162 -126 167 60 55 257 220 263 220 4 0 165 -38 357 -84 547 -133 862
-194 1309 -255 547 -76 722 -92 990 -92 297 0 482 23 691 87 312 94 532 231
794 494 458 457 781 1033 1170 2085 199 538 337 1003 639 2149 89 335 161 624
161 642 0 50 -16 82 -52 104 -39 24 -99 24 -818 4z"/>
<path d="M32405 32199 c-916 -84 -1708 -423 -2490 -1062 -419 -343 -796 -745
-1214 -1294 -105 -138 -118 -173 -81 -231 41 -65 58 -67 369 -35 249 25 311
28 636 27 385 0 523 -10 811 -59 1424 -241 2337 -1166 2739 -2775 92 -368 146
-700 176 -1070 13 -174 13 -617 -1 -790 -95 -1207 -595 -2305 -1514 -3325 -54
-60 -351 -364 -660 -675 -836 -840 -1319 -1353 -1877 -1990 -464 -530 -952
-1139 -1274 -1589 -75 -106 -89 -131 -93 -172 -4 -45 -2 -51 31 -84 29 -29 42
-35 77 -35 52 0 56 2 230 130 1373 1008 3069 2050 4845 2978 997 520 1849 783
2840 874 214 20 846 17 1065 -5 574 -58 1044 -162 1610 -356 129 -45 246 -81
258 -81 45 0 90 29 106 70 19 48 14 79 -29 180 -322 754 -960 1325 -1905 1702
-205 82 -519 185 -727 238 l-43 11 133 177 c830 1104 1383 2132 1651 3068 309
1081 246 2047 -190 2904 -84 165 -149 274 -309 515 -805 1216 -1842 2037
-3110 2460 -410 137 -829 232 -1245 281 -160 19 -667 27 -815 13z"/>
<path d="M17115 32193 c-271 -22 -460 -48 -710 -99 -1610 -328 -2895 -1215
-3850 -2659 -73 -110 -158 -243 -189 -295 -542 -912 -645 -1952 -310 -3124
268 -936 821 -1964 1651 -3068 l133 -177 -43 -11 c-208 -53 -522 -156 -727
-238 -945 -377 -1583 -948 -1905 -1702 -43 -101 -48 -132 -29 -180 16 -41 61
-70 106 -70 12 0 129 36 258 81 566 194 1036 298 1610 356 219 22 851 25 1065
5 991 -91 1843 -354 2840 -874 1776 -928 3472 -1970 4845 -2978 174 -128 178
-130 230 -130 35 0 48 6 77 35 33 33 35 39 31 84 -4 41 -18 66 -93 172 -322
450 -810 1059 -1274 1589 -558 637 -1041 1150 -1877 1990 -309 311 -606 615
-660 675 -919 1020 -1419 2118 -1514 3325 -14 173 -14 616 -1 790 66 838 295
1657 630 2254 405 723 972 1199 1726 1451 398 133 766 191 1270 202 300 6 501
-3 823 -38 187 -20 193 -20 230 -2 48 23 77 76 68 123 -9 53 -303 430 -556
715 -909 1026 -1935 1625 -3030 1769 -202 27 -350 36 -570 34 -118 -1 -233 -3
-255 -5z"/>
</g>
</svg>
