<?xml version="1.0" standalone="no"?>
<!DOCTYPE svg PUBLIC "-//W3C//DTD SVG 20010904//EN"
 "http://www.w3.org/TR/2001/REC-SVG-20010904/DTD/svg10.dtd">
<svg version="1.0" xmlns="http://www.w3.org/2000/svg"
 width="30.000000pt" height="40.000000pt" viewBox="0 0 30.000000 40.000000"
 preserveAspectRatio="xMidYMid meet">
<metadata>
Created by potrace 1.16, written by Peter Selinger 2001-2019
</metadata>
<g transform="translate(0.000000,40.000000) scale(0.100000,-0.100000)"
fill="#000000" stroke="none">
<path d="M110 335 c11 -28 8 -31 -41 -75 -67 -59 -65 -80 10 -96 29 -7 57 -16
63 -22 15 -15 -2 -41 -30 -44 -20 -2 -29 -11 -35 -33 -5 -16 -13 -38 -18 -47
-13 -26 32 -24 56 2 l18 20 22 -20 c12 -11 35 -20 52 -20 26 0 30 3 26 20 -3
12 6 34 26 59 26 33 30 44 22 60 -17 31 -71 71 -96 71 -26 0 -55 24 -55 44 0
8 9 20 19 27 18 13 18 15 -15 48 l-35 35 11 -29z"/>
</g>
</svg>
