<?xml version="1.0" standalone="no"?>
<!DOCTYPE svg PUBLIC "-//W3C//DTD SVG 20010904//EN"
 "http://www.w3.org/TR/2001/REC-SVG-20010904/DTD/svg10.dtd">
<svg version="1.0" xmlns="http://www.w3.org/2000/svg"
 width="5000.000000pt" height="5000.000000pt" viewBox="0 0 5000.000000 5000.000000"
 preserveAspectRatio="xMidYMid meet">
<metadata>
Created by potrace 1.16, written by Peter Selinger 2001-2019
</metadata>
<g transform="translate(0.000000,5000.000000) scale(0.100000,-0.100000)"
fill="#000000" stroke="none">
<path d="M24364 49968 c-13 -25 -19 -78 -25 -238 -94 -2332 -1145 -4894 -3167
-7720 -508 -710 -1173 -1554 -1798 -2280 -146 -170 -227 -289 -419 -610 -1269
-2130 -1572 -4083 -910 -5865 370 -993 1037 -1932 1999 -2812 911 -834 2069
-1605 3536 -2356 543 -278 728 -361 1055 -472 3624 -1239 6239 -2635 8090
-4319 172 -157 610 -598 756 -761 1306 -1462 1985 -3024 2090 -4810 15 -250 6
-841 -15 -1090 -44 -497 -74 -661 -201 -1080 -399 -1317 -1048 -2414 -1962
-3316 -628 -619 -1313 -1097 -2177 -1519 -440 -215 -807 -364 -1306 -531 -864
-288 -1729 -478 -2842 -626 -255 -33 -295 -36 -608 -40 -627 -9 -1332 32
-1930 113 -899 121 -1626 328 -2250 641 -418 209 -717 420 -1005 708 -738 737
-1048 1748 -939 3060 52 634 146 989 382 1449 363 707 996 1390 1957 2113 88
66 166 127 174 137 8 9 16 38 18 64 6 53 -16 91 -68 118 -68 35 -581 153 -903
209 -590 101 -1209 122 -1716 59 -784 -98 -1444 -372 -2040 -848 -144 -116
-459 -425 -579 -571 -260 -315 -496 -678 -682 -1050 -86 -171 -97 -210 -153
-517 -63 -343 -89 -626 -89 -978 1 -676 130 -1265 402 -1835 414 -865 1150
-1620 2191 -2247 515 -310 1349 -711 2085 -1003 2926 -1159 5875 -1332 8840
-519 1319 362 2611 908 3985 1684 124 69 323 181 442 248 1813 1017 3209 2224
4155 3592 1330 1923 1784 4205 1352 6795 -197 1181 -571 2417 -1130 3733 -43
103 -75 190 -71 194 8 8 481 -305 727 -481 958 -685 1703 -1361 2278 -2065
665 -813 1100 -1663 1286 -2513 82 -375 114 -676 114 -1068 1 -366 -27 -662
-94 -1005 -177 -906 -574 -1819 -1204 -2770 -303 -456 -343 -503 -735 -849
-1254 -1110 -2940 -2206 -5085 -3308 -983 -506 -1235 -639 -1815 -961 -2283
-1267 -5424 -3239 -8890 -5582 -173 -117 -320 -215 -327 -217 -7 -3 -133 80
-280 184 -2176 1539 -4173 2824 -6118 3938 -1230 704 -2342 1290 -3605 1896
-1980 951 -3507 1782 -4475 2437 -714 483 -1036 781 -1630 1507 -1090 1332
-1755 2665 -1960 3928 -205 1266 27 2500 696 3694 739 1319 1971 2567 3786
3836 45 32 84 54 87 49 3 -5 -28 -58 -68 -118 -496 -742 -958 -1570 -1284
-2301 -802 -1795 -1056 -3476 -756 -5008 244 -1247 820 -2368 1773 -3455 167
-190 543 -573 751 -765 921 -849 2071 -1633 3490 -2381 360 -189 950 -476 992
-481 84 -12 132 36 133 132 0 48 -5 67 -25 95 -13 19 -166 194 -339 390 -453
512 -632 735 -863 1075 -524 769 -992 1861 -1167 2721 -91 448 -149 1174 -137
1711 19 834 92 1319 286 1886 259 760 693 1687 1098 2347 474 771 1001 1440
1637 2075 876 877 1876 1599 2851 2059 854 403 1486 587 2539 740 1006 146
1439 162 2386 90 364 -28 364 -28 403 -9 56 28 80 65 80 124 0 90 -43 127
-187 160 -192 45 -1289 484 -2043 819 -843 374 -1742 825 -2434 1222 -1295
743 -2323 1503 -3150 2330 -684 683 -1170 1340 -1538 2076 -461 922 -670 1878
-631 2884 14 351 15 333 -12 387 -20 40 -31 50 -65 61 -35 11 -47 11 -77 -2
-20 -8 -43 -26 -52 -40 -9 -13 -49 -123 -90 -243 -329 -984 -770 -1893 -1383
-2853 -460 -721 -1093 -1547 -1648 -2150 -4512 -4904 -7028 -9315 -7513
-13170 -80 -634 -107 -1262 -67 -1585 61 -494 188 -906 426 -1384 327 -653
767 -1231 1451 -1906 653 -645 1408 -1243 2389 -1895 500 -331 716 -462 1259
-762 7107 -3925 12100 -7273 15081 -10113 91 -87 179 -166 195 -176 34 -21 90
-24 121 -6 11 7 216 209 455 451 1107 1119 2188 2071 3439 3028 1666 1275
3677 2555 5390 3433 3848 1972 6584 3896 8352 5875 1194 1337 1926 2719 2158
4075 155 908 95 1842 -175 2730 -20 66 -61 203 -91 305 -406 1374 -1155 2785
-2248 4235 -625 829 -1318 1617 -2201 2501 -870 872 -1709 1626 -2790 2511
-156 127 -311 279 -565 553 -1053 1138 -1884 2481 -2472 3995 -330 852 -599
1811 -777 2775 -22 118 -44 227 -50 241 -26 70 -122 92 -180 43 -57 -48 -482
-642 -737 -1029 -1054 -1605 -1612 -2971 -1746 -4275 -17 -166 -17 -718 0
-875 57 -530 193 -1001 413 -1435 107 -213 182 -334 409 -662 932 -1351 1494
-2325 1815 -3143 93 -237 183 -529 166 -540 -5 -2 -84 59 -177 137 -1315 1100
-2355 2284 -3101 3533 -794 1328 -1270 2734 -1433 4230 -70 652 -80 1451 -24
2120 104 1255 391 2519 881 3870 109 301 119 344 88 392 -22 33 -80 56 -120
49 -54 -10 -683 -418 -1144 -741 -1903 -1334 -3180 -2652 -3867 -3990 -331
-644 -512 -1244 -576 -1910 -18 -188 -15 -635 6 -825 49 -459 144 -852 306
-1280 154 -404 407 -889 669 -1278 45 -68 81 -128 79 -134 -5 -13 -221 168
-402 337 -1009 940 -1542 1897 -1651 2965 -23 224 -16 655 14 880 169 1241
866 2514 2159 3943 192 213 886 907 1122 1123 258 236 511 459 625 548 468
371 798 764 1035 1236 561 1116 481 2530 -241 4251 -655 1564 -1867 3420
-3576 5477 l-143 172 -85 0 -84 0 -17 -32z"/>
<path d="M25070 24154 c-625 -35 -973 -84 -1480 -209 -543 -134 -1042 -321
-1535 -574 -892 -459 -1689 -1109 -2300 -1876 -353 -442 -749 -1100 -939
-1556 -63 -152 -70 -202 -36 -257 25 -40 80 -66 129 -59 119 16 174 38 398
160 452 246 715 368 998 462 597 199 1486 317 2147 285 615 -29 1074 -108
1647 -282 323 -97 625 -221 986 -403 259 -131 365 -192 605 -351 699 -462
1255 -1007 1757 -1724 226 -324 343 -560 463 -940 110 -350 175 -645 201 -920
16 -160 15 -557 0 -725 -41 -445 -173 -943 -342 -1291 -114 -234 -284 -496
-431 -664 -87 -99 -143 -148 -290 -254 -59 -42 -116 -88 -127 -102 -53 -67
-31 -163 49 -214 26 -17 63 -33 82 -36 23 -4 163 26 448 95 971 237 1241 321
1605 501 461 228 1128 672 1540 1026 168 145 506 472 659 639 356 389 624 817
819 1311 249 626 319 1018 266 1489 -43 377 -146 911 -259 1335 -225 851 -682
1746 -1255 2460 -657 821 -1447 1460 -2371 1923 -827 414 -1704 656 -2648 732
-185 15 -657 26 -786 19z"/>
</g>
</svg>
