<?xml version="1.0" standalone="no"?>
<!DOCTYPE svg PUBLIC "-//W3C//DTD SVG 20010904//EN"
 "http://www.w3.org/TR/2001/REC-SVG-20010904/DTD/svg10.dtd">
<svg version="1.0" xmlns="http://www.w3.org/2000/svg"
 width="5000.000000pt" height="5000.000000pt" viewBox="0 0 5000.000000 5000.000000"
 preserveAspectRatio="xMidYMid meet">
<metadata>
Created by potrace 1.16, written by Peter Selinger 2001-2019
</metadata>
<g transform="translate(0.000000,5000.000000) scale(0.100000,-0.100000)"
fill="#000000" stroke="none">
<path d="M16900 49503 c-24 -8 -161 -66 -305 -128 -1625 -701 -3017 -1537
-4100 -2459 -349 -298 -792 -726 -1051 -1016 -1354 -1516 -2099 -3208 -2289
-5200 -41 -434 -53 -1164 -27 -1580 140 -2170 728 -4018 1800 -5650 572 -872
1311 -1704 2161 -2433 1626 -1394 3748 -2528 6361 -3397 914 -304 1968 -598
2972 -829 199 -46 207 -47 249 -26 60 31 85 106 54 164 -8 16 -103 109 -212
207 -3020 2725 -5110 5541 -6283 8464 -1091 2720 -1390 5511 -899 8415 281
1663 838 3398 1643 5116 108 231 115 265 71 318 -23 27 -37 35 -85 46 -8 2
-35 -3 -60 -12z"/>
<path d="M32733 49499 c-17 -5 -43 -23 -57 -40 -45 -53 -38 -87 70 -318 1483
-3165 2086 -6253 1803 -9226 -230 -2412 -1043 -4753 -2447 -7045 -1192 -1945
-2828 -3859 -4895 -5724 -109 -98 -204 -191 -212 -207 -31 -58 -6 -133 54
-164 42 -21 50 -20 249 26 2967 682 5501 1658 7475 2876 1864 1151 3284 2539
4254 4158 924 1542 1435 3266 1565 5275 26 416 14 1146 -27 1580 -163 1704
-731 3188 -1735 4525 -449 598 -983 1161 -1605 1691 -1090 929 -2514 1780
-4135 2474 -151 64 -286 120 -300 123 -14 2 -39 1 -57 -4z"/>
<path d="M6325 42660 c-41 -16 -68 -62 -199 -337 -1241 -2592 -1960 -4847
-2151 -6745 -42 -427 -50 -583 -49 -1043 0 -458 10 -648 55 -1010 97 -791 326
-1536 667 -2170 412 -766 1021 -1671 1561 -2319 392 -471 877 -958 1296 -1301
508 -417 1078 -775 1625 -1020 519 -233 1812 -643 2815 -894 1058 -264 1908
-415 2905 -516 1854 -188 3632 -698 4895 -1404 940 -526 1906 -1272 2777
-2144 754 -756 1195 -1665 1327 -2735 35 -283 44 -477 38 -832 -12 -691 -107
-1298 -282 -1801 -519 -1494 -1854 -2529 -4021 -3119 l-152 -41 -353 209
c-466 275 -774 462 -878 531 -46 31 -98 65 -114 75 -29 19 -38 19 -216 7 -551
-37 -1006 -89 -1307 -152 -303 -62 -457 -135 -485 -229 -21 -69 -6 -90 200
-278 904 -821 1816 -1758 2657 -2727 2152 -2481 4050 -5428 5612 -8715 118
-248 177 -360 195 -374 25 -18 83 -29 169 -30 69 0 79 14 260 394 1562 3287
3460 6234 5612 8715 841 970 1755 1908 2657 2728 208 188 223 210 200 280 -31
92 -185 164 -485 226 -301 63 -756 115 -1307 152 -178 12 -187 12 -216 -7 -16
-10 -68 -44 -114 -75 -104 -69 -412 -256 -878 -531 l-353 -209 -152 41 c-2167
590 -3502 1625 -4021 3119 -175 503 -270 1110 -282 1801 -6 355 3 549 38 832
132 1070 573 1979 1327 2735 871 872 1837 1618 2777 2144 1263 706 3041 1216
4895 1404 1143 116 2196 316 3415 650 686 188 1683 506 2052 654 769 308 1482
760 2168 1376 185 166 588 571 756 760 565 635 1110 1399 1616 2265 294 503
440 819 586 1265 168 515 259 984 313 1615 23 257 26 990 6 1265 -132 1833
-685 3804 -1735 6185 -272 617 -577 1256 -617 1293 -57 52 -158 28 -193 -46
-9 -19 -17 -42 -17 -51 0 -26 -106 -596 -186 -1001 -824 -4157 -2048 -7190
-3665 -9076 -423 -493 -1014 -1084 -1576 -1576 -1402 -1227 -3192 -2416 -5325
-3536 -334 -176 -538 -279 -1428 -720 -796 -396 -1201 -613 -1748 -939 -1758
-1049 -3005 -2145 -3778 -3323 -110 -168 -261 -430 -348 -603 -59 -118 -208
-510 -271 -714 -25 -79 -45 -106 -45 -60 0 18 -64 211 -144 437 -51 143 -194
440 -306 635 -725 1261 -2012 2453 -3849 3564 -607 367 -1127 648 -1986 1071
-1149 566 -1689 849 -2473 1297 -2383 1360 -4252 2801 -5607 4323 -1790 2009
-3096 5314 -3940 9969 -32 175 -63 322 -73 338 -27 47 -96 70 -147 48z m18574
-28447 c59 -100 121 -194 220 -329 53 -73 127 -176 165 -230 39 -55 108 -148
155 -209 704 -906 1527 -1523 2532 -1899 l139 -52 -117 -22 c-437 -81 -848
-76 -1253 14 -400 90 -780 256 -1155 507 -188 126 -267 189 -453 361 -96 89
-186 169 -200 178 -30 20 -93 24 -124 7 -11 -6 -88 -71 -171 -146 -901 -802
-1863 -1104 -2910 -911 l-118 22 53 19 c315 114 674 279 928 427 783 456 1445
1099 2017 1961 119 178 246 359 253 359 3 0 21 -26 39 -57z m157 -3854 c151
-148 170 -163 334 -274 281 -189 583 -358 1027 -578 l302 -149 -93 -116 c-575
-724 -1018 -1430 -1425 -2268 -99 -205 -123 -267 -220 -560 -93 -282 -110
-325 -119 -304 -5 14 -53 146 -106 294 -313 872 -923 1917 -1662 2848 l-93
116 332 165 c495 246 805 424 1087 625 168 120 283 230 367 350 l65 93 48 -68
c26 -38 97 -116 156 -174z"/>
<path d="M1295 32780 c-60 -24 -86 -92 -250 -665 -332 -1159 -515 -2200 -576
-3275 -14 -253 -14 -893 1 -1135 47 -812 171 -1517 389 -2225 139 -453 297
-840 542 -1335 437 -882 935 -1636 1540 -2330 146 -168 587 -608 754 -754 391
-341 796 -638 1193 -874 2062 -1228 4299 -1442 6662 -638 352 120 326 109
2875 1161 523 216 1330 550 1795 742 938 389 995 412 1171 463 752 218 1437
121 2059 -293 668 -444 1062 -1078 1174 -1888 58 -419 39 -915 -44 -1165 -190
-567 -764 -998 -1705 -1278 -520 -154 -1101 -259 -1840 -331 -199 -20 -212
-22 -250 -49 -82 -59 -80 -49 -83 -353 -5 -388 27 -627 118 -900 88 -264 200
-449 384 -634 274 -274 606 -423 1096 -491 156 -21 660 -24 850 -5 549 57 971
175 1370 383 133 70 358 217 480 316 505 406 952 1104 1204 1880 245 756 332
1712 216 2363 -116 645 -424 1307 -914 1960 -387 516 -958 1105 -1406 1447
-948 724 -2222 1190 -3785 1382 -138 17 -231 27 -545 56 -227 22 -620 37
-1180 45 -676 10 -973 20 -1360 46 -1792 120 -3393 497 -4782 1128 -219 99
-576 277 -758 379 -1800 1001 -3761 3105 -5950 6387 -142 213 -263 390 -267
392 -4 1 -16 16 -25 33 -29 52 -100 77 -153 55z"/>
<path d="M48322 32763 c-19 -10 -41 -32 -50 -48 -9 -17 -21 -32 -25 -33 -4 -2
-125 -179 -267 -392 -2189 -3282 -4150 -5386 -5950 -6387 -182 -102 -539 -280
-758 -379 -1389 -631 -2990 -1008 -4782 -1128 -387 -26 -684 -36 -1360 -46
-560 -8 -953 -23 -1180 -45 -314 -29 -407 -39 -545 -56 -1563 -192 -2837 -658
-3785 -1382 -448 -342 -1019 -931 -1406 -1447 -490 -653 -798 -1315 -914
-1960 -78 -441 -66 -1009 36 -1619 121 -730 394 -1413 789 -1976 522 -744
1240 -1175 2190 -1315 248 -36 377 -45 680 -44 324 0 443 11 665 60 365 82
626 218 856 448 184 185 296 370 384 634 91 273 123 512 118 900 -3 304 -1
294 -83 353 -38 27 -51 29 -250 49 -1408 137 -2388 422 -2982 866 -157 118
-336 309 -431 459 -41 66 -105 203 -132 284 -64 193 -92 529 -71 862 30 490
119 841 306 1209 245 480 672 894 1186 1150 543 269 1129 311 1768 125 176
-51 233 -74 1171 -463 465 -192 1273 -526 1795 -742 2549 -1052 2523 -1041
2875 -1161 2363 -804 4600 -590 6662 638 397 236 802 533 1193 874 167 146
608 586 754 754 605 694 1103 1448 1540 2330 245 495 403 882 542 1335 218
708 342 1413 389 2225 15 242 15 882 1 1135 -61 1075 -244 2116 -576 3275
-136 475 -179 604 -213 637 -37 38 -94 46 -140 21z"/>
</g>
</svg>
