<?xml version="1.0" standalone="no"?>
<!DOCTYPE svg PUBLIC "-//W3C//DTD SVG 20010904//EN"
 "http://www.w3.org/TR/2001/REC-SVG-20010904/DTD/svg10.dtd">
<svg version="1.0" xmlns="http://www.w3.org/2000/svg"
 width="5000.000000pt" height="5000.000000pt" viewBox="0 0 5000.000000 5000.000000"
 preserveAspectRatio="xMidYMid meet">
<metadata>
Created by potrace 1.16, written by Peter Selinger 2001-2019
</metadata>
<g transform="translate(0.000000,5000.000000) scale(0.100000,-0.100000)"
fill="#000000" stroke="none">
<path d="M24325 49944 c-1391 -42 -2318 -126 -3530 -320 -998 -160 -1970 -379
-3010 -679 -939 -270 -2080 -683 -2956 -1068 -1370 -603 -2487 -1205 -3729
-2009 -694 -450 -1712 -1202 -2310 -1707 -1334 -1126 -2555 -2366 -3755 -3811
-368 -444 -766 -948 -999 -1268 -496 -680 -925 -1478 -1151 -2142 -125 -370
-208 -683 -245 -925 -31 -200 -38 -567 -16 -765 62 -542 259 -1116 534 -1552
367 -585 1135 -1189 1797 -1413 484 -163 1168 -225 1775 -160 613 66 980 183
1360 432 201 133 337 243 550 447 355 341 524 551 1105 1371 532 751 978 1290
1451 1755 340 334 571 537 1004 882 467 371 1649 1209 2175 1542 937 593 1835
1050 2974 1516 1941 794 3592 1210 5526 1395 1569 149 2811 142 4140 -25 963
-122 1828 -267 2600 -436 1565 -344 2441 -637 3520 -1176 1218 -609 2316
-1239 3045 -1746 581 -404 1161 -845 1580 -1201 902 -767 1661 -1529 2431
-2441 466 -551 1082 -1393 1476 -2015 822 -1298 1429 -2526 1930 -3905 639
-1758 1032 -3629 1148 -5455 88 -1410 40 -2708 -151 -4055 -128 -903 -287
-1668 -533 -2561 -235 -851 -573 -1802 -931 -2614 -700 -1588 -1539 -2983
-2622 -4360 -259 -330 -497 -602 -953 -1090 -250 -267 -646 -701 -940 -1030
-238 -266 -336 -353 -705 -627 -313 -233 -695 -493 -1260 -859 -371 -241 -360
-235 -224 -119 375 319 1042 973 1479 1450 457 498 1137 1368 1522 1945 717
1076 1272 2131 1753 3335 293 734 598 1719 774 2505 296 1320 431 2528 430
3865 0 698 -34 1315 -110 1990 -60 539 -206 1369 -348 1985 -176 760 -481
1725 -778 2460 -471 1163 -997 2161 -1695 3215 -322 486 -797 1113 -1229 1621
-567 668 -1354 1448 -2029 2011 -756 629 -1450 1122 -2275 1615 -814 486
-1612 878 -2525 1243 -732 292 -1761 609 -2534 780 -1151 255 -2160 380 -3381
421 -1291 43 -2991 -120 -4410 -422 -784 -167 -1865 -508 -2445 -771 -304
-138 -644 -332 -838 -477 -370 -277 -642 -537 -830 -793 -258 -350 -504 -889
-611 -1338 -43 -177 -57 -296 -63 -515 -15 -565 91 -1178 289 -1680 141 -358
478 -857 778 -1154 490 -486 877 -708 1490 -855 339 -82 586 -111 930 -111
279 0 397 12 655 66 145 30 185 42 775 222 454 139 538 163 910 262 173 46
371 100 440 119 508 141 1023 227 1735 292 390 35 1152 30 1620 -12 536 -47
755 -76 1185 -159 654 -125 1743 -427 2485 -689 444 -157 756 -291 1280 -551
699 -347 1186 -646 1801 -1108 742 -557 1202 -961 1734 -1522 347 -367 562
-618 874 -1018 760 -978 1356 -2022 1842 -3226 137 -339 295 -803 421 -1236
534 -1844 652 -3873 337 -5770 -125 -755 -272 -1348 -514 -2075 -352 -1060
-846 -2076 -1495 -3075 -346 -533 -872 -1204 -1320 -1685 -188 -202 -611 -622
-833 -827 -420 -390 -1075 -901 -1562 -1218 -890 -581 -1504 -909 -2304 -1232
-1024 -414 -1804 -628 -2901 -797 -818 -126 -1558 -186 -2315 -186 -519 0
-842 15 -1390 65 -1298 119 -2427 289 -3980 601 -1258 252 -2561 595 -3514
926 -1066 369 -1947 747 -3691 1583 -398 191 -464 223 -1057 509 -73 35 -232
112 -353 170 -122 60 -238 110 -262 113 -120 16 -212 -117 -155 -227 18 -35
621 -728 1035 -1190 247 -275 923 -956 1122 -1129 438 -382 1034 -787 1895
-1286 1169 -677 2144 -1170 2985 -1507 515 -207 1162 -406 1712 -528 330 -73
1678 -308 2178 -380 567 -81 1692 -213 2125 -250 668 -55 1383 -78 1961 -61
1721 50 3461 225 4689 471 1393 279 2811 693 4160 1213 1310 505 3062 1409
4512 2328 443 281 1136 772 1683 1193 1342 1033 2334 1967 3381 3181 1237
1436 2108 2716 3043 4468 378 710 1035 2034 1263 2547 272 612 408 980 618
1666 147 481 235 801 509 1854 255 980 454 2093 586 3280 93 843 156 2135 141
2920 -30 1574 -146 2783 -412 4265 -198 1110 -548 2453 -919 3529 -421 1222
-793 2106 -1371 3256 -558 1112 -1227 2216 -1968 3250 -822 1147 -1660 2135
-2660 3136 -706 706 -1450 1370 -2151 1920 -1101 863 -2066 1512 -3255 2186
-898 510 -2071 1073 -2990 1435 -1237 487 -2330 832 -3560 1123 -593 140 -975
217 -1560 315 -1142 191 -2064 285 -3265 335 -256 11 -1182 20 -1380 14z
m17285 -43157 c0 -2 -11 -14 -25 -27 l-25 -23 0 26 c0 22 5 27 25 27 14 0 25
-1 25 -3z m-160 -141 c0 -2 -7 -9 -15 -16 -12 -10 -15 -10 -15 4 0 9 7 16 15
16 8 0 15 -2 15 -4z m-825 -706 c-3 -5 -15 -15 -26 -20 -16 -9 -19 -7 -19 10
0 15 7 20 26 20 14 0 22 -4 19 -10z m-715 -554 c0 -2 -7 -9 -15 -16 -12 -10
-15 -10 -15 4 0 9 7 16 15 16 8 0 15 -2 15 -4z"/>
<path d="M3395 28089 c-670 -54 -1262 -268 -1793 -647 -526 -377 -951 -912
-1195 -1507 -64 -156 -152 -436 -182 -579 -68 -317 -95 -659 -77 -938 25 -380
76 -634 193 -974 319 -928 1047 -1699 1956 -2073 441 -181 867 -265 1343 -265
237 0 365 11 596 49 576 97 1132 349 1609 729 129 103 408 382 511 511 380
477 632 1033 729 1609 38 231 49 359 49 596 0 392 -51 717 -170 1083 -288 883
-902 1603 -1729 2028 -561 289 -1234 427 -1840 378z"/>
<path d="M24360 22090 c-559 -32 -1004 -92 -1520 -206 -1163 -257 -2281 -754
-3240 -1439 -512 -367 -939 -740 -1347 -1177 -269 -288 -422 -472 -665 -798
-731 -982 -1263 -2143 -1532 -3345 -132 -587 -189 -1037 -217 -1696 -26 -629
37 -1378 172 -2044 196 -968 544 -1885 1042 -2740 282 -484 630 -968 1006
-1400 136 -155 661 -680 816 -816 1076 -939 2374 -1619 3727 -1954 1297 -321
2605 -356 3885 -104 656 129 1307 332 1918 599 404 177 986 498 1355 748 963
653 1711 1391 2385 2351 244 349 369 603 370 753 0 49 -4 61 -30 88 -41 42
-93 57 -147 40 -37 -10 -102 -70 -438 -404 -595 -590 -865 -821 -1455 -1243
-908 -648 -1937 -1148 -3055 -1482 -1085 -325 -2020 -382 -2995 -184 -1031
209 -1993 677 -2975 1449 -684 537 -1216 1122 -1590 1749 -102 170 -265 503
-337 685 -357 909 -413 1872 -172 2952 252 1128 765 2029 1507 2647 604 502
1389 851 2282 1015 286 52 393 61 735 61 281 -1 337 -4 464 -23 292 -46 552
-128 796 -251 270 -137 471 -287 700 -523 273 -280 446 -535 674 -988 102
-202 128 -263 180 -430 34 -107 89 -280 123 -385 115 -364 261 -692 474 -1067
313 -550 602 -875 1034 -1163 293 -196 679 -363 979 -425 203 -41 304 -52 562
-57 676 -14 1158 105 1790 444 352 188 592 365 829 609 331 342 551 698 734
1186 278 742 318 1326 161 2333 -63 402 -196 863 -375 1300 -116 282 -392 804
-614 1161 -187 300 -559 805 -780 1059 -364 420 -786 827 -1191 1152 -1049
840 -2284 1441 -3570 1737 -490 113 -926 178 -1455 216 -197 15 -809 20 -1000
10z m-5120 -9032 c-1 -7 -7 -26 -15 -43 l-13 -30 -1 43 c-1 31 3 42 14 42 8 0
15 -6 15 -12z"/>
<path d="M7860 16249 c-494 -47 -968 -239 -1353 -548 -97 -79 -289 -271 -368
-368 -378 -471 -579 -1072 -555 -1663 26 -656 281 -1237 747 -1699 267 -265
578 -458 938 -582 717 -247 1498 -158 2141 243 520 325 894 815 1074 1411 236
779 65 1646 -452 2288 -188 233 -437 443 -722 607 -420 242 -960 358 -1450
311z"/>
</g>
</svg>
