<?xml version="1.0" standalone="no"?>
<!DOCTYPE svg PUBLIC "-//W3C//DTD SVG 20010904//EN"
 "http://www.w3.org/TR/2001/REC-SVG-20010904/DTD/svg10.dtd">
<svg version="1.0" xmlns="http://www.w3.org/2000/svg"
 width="5000.000000pt" height="5000.000000pt" viewBox="0 0 5000.000000 5000.000000"
 preserveAspectRatio="xMidYMid meet">
<metadata>
Created by potrace 1.16, written by Peter Selinger 2001-2019
</metadata>
<g transform="translate(0.000000,5000.000000) scale(0.100000,-0.100000)"
fill="#000000" stroke="none">
<path d="M25675 49659 c-55 -5 -136 -18 -180 -29 -44 -11 -159 -34 -255 -51
-96 -17 -203 -36 -237 -42 l-62 -11 252 -92 c174 -63 321 -126 477 -202 124
-60 353 -168 510 -240 745 -339 1006 -470 1655 -835 4354 -2444 7309 -5127
8700 -7897 451 -900 717 -1711 865 -2646 266 -1685 212 -3245 -161 -4640 -503
-1882 -1619 -3532 -3299 -4879 -1129 -906 -2316 -1416 -3801 -1634 -627 -92
-1325 -132 -1754 -101 -874 65 -1811 342 -2765 820 -732 366 -1498 870 -2070
1361 -1088 933 -1735 2036 -1914 3264 -61 417 -65 934 -10 1375 36 292 102
612 180 885 280 972 864 1731 1734 2255 111 67 462 245 640 325 147 66 547
194 829 265 316 79 840 167 1076 180 94 5 218 13 277 16 l108 7 -31 36 c-18
20 -104 114 -193 209 -136 146 -191 197 -356 325 -1477 1151 -3110 1955 -4852
2387 -1033 257 -2041 372 -3133 357 -443 -6 -577 -13 -970 -48 -3122 -278
-6209 -1718 -8915 -4158 -351 -316 -984 -939 -1301 -1281 -267 -287 -775 -869
-842 -963 -23 -31 -44 -54 -48 -50 -3 5 -3 67 2 138 218 3286 1422 6406 3612
9365 171 231 496 648 512 658 11 7 213 259 263 329 l23 33 -218 -75 c-120 -42
-251 -91 -292 -110 -294 -139 -765 -495 -1316 -994 -221 -201 -841 -822 -1070
-1071 -2429 -2654 -4367 -5942 -5499 -9332 -671 -2008 -1056 -4002 -1181
-6108 -31 -529 -39 -824 -39 -1450 1 -1260 73 -2288 250 -3545 370 -2627 1197
-5333 2312 -7561 351 -701 705 -1298 869 -1462 29 -30 92 -99 140 -155 48 -56
105 -122 128 -147 22 -25 54 -63 72 -84 l32 -39 -9 39 c-23 96 -93 494 -96
544 -15 220 -31 393 -74 805 -90 865 -101 1039 -121 1930 -17 759 -5 1698 31
2470 198 4208 1160 7466 2843 9629 486 625 964 1096 1669 1643 1161 901 2345
1536 3538 1898 1828 554 3714 502 5680 -155 1107 -370 1947 -838 2739 -1527
186 -162 569 -545 734 -734 467 -536 941 -1198 1179 -1646 446 -840 692 -1790
780 -3008 17 -237 17 -1079 0 -1320 -84 -1174 -277 -1979 -663 -2755 -502
-1011 -1257 -1754 -2283 -2251 -735 -355 -1527 -543 -2166 -514 -952 42 -1791
400 -2580 1100 -122 108 -615 615 -756 776 -132 152 -296 377 -439 604 -71
113 -171 268 -221 345 l-91 139 -31 -177 c-18 -97 -56 -334 -87 -527 -116
-743 -143 -1043 -167 -1841 -44 -1538 207 -3108 729 -4554 1269 -3516 4076
-6329 7988 -8005 999 -428 2072 -784 3169 -1050 376 -91 1143 -252 1320 -277
48 -7 88 -17 88 -21 -1 -11 -321 -165 -560 -271 -1570 -695 -3190 -1130 -4917
-1320 -448 -50 -828 -77 -1330 -97 -341 -13 -1346 -7 -1650 11 -758 43 -1342
100 -2015 196 -173 24 -341 51 -372 59 -46 11 -447 75 -475 75 -25 0 379 -340
477 -401 310 -194 933 -450 1595 -655 2237 -694 5074 -1065 7702 -1006 1798
41 3381 226 5023 588 4108 906 7924 2911 11185 5879 534 486 1199 1150 1690
1690 1075 1180 2040 2467 2668 3560 140 245 261 490 286 584 12 41 54 167 95
280 40 114 77 216 81 229 4 16 -59 -32 -196 -148 -113 -95 -266 -212 -344
-264 -78 -51 -321 -221 -541 -378 -678 -483 -821 -578 -1299 -868 -3651 -2208
-6955 -3466 -9765 -3720 -376 -33 -519 -41 -920 -47 -1287 -19 -2396 170
-3498 596 -1246 482 -2349 1105 -3217 1816 -439 359 -885 798 -1226 1205 -925
1107 -1567 2438 -1909 3965 -175 785 -250 1449 -237 2115 14 711 116 1340 332
2048 237 778 665 1719 1030 2262 748 1113 2046 2123 3655 2845 1263 566 2419
747 3520 549 992 -178 1920 -678 2701 -1454 354 -351 576 -655 779 -1065 254
-513 373 -1007 387 -1605 17 -752 -134 -1435 -500 -2250 -329 -735 -421 -949
-413 -958 6 -5 214 35 481 93 186 40 222 51 479 155 2137 858 3913 2157 5283
3865 927 1156 1645 2486 2130 3943 693 2087 895 4412 592 6837 -151 1211 -423
2437 -805 3635 -133 415 -205 632 -251 748 -24 62 -43 117 -41 122 2 5 91 -52
198 -127 2067 -1435 3742 -3292 5063 -5618 258 -455 613 -1151 822 -1615 213
-471 499 -1162 555 -1341 15 -47 60 -169 100 -272 l74 -188 50 243 50 243 0
255 c0 173 -6 305 -17 410 -159 1434 -778 3488 -1625 5395 -1430 3220 -3431
6078 -5842 8345 -3164 2975 -7248 5101 -11691 6084 -1225 271 -2342 432 -3584
517 -209 14 -1171 20 -1300 8z"/>
</g>
</svg>
