<?xml version="1.0" standalone="no"?>
<!DOCTYPE svg PUBLIC "-//W3C//DTD SVG 20010904//EN"
 "http://www.w3.org/TR/2001/REC-SVG-20010904/DTD/svg10.dtd">
<svg version="1.0" xmlns="http://www.w3.org/2000/svg"
 width="5000.000000pt" height="5000.000000pt" viewBox="0 0 5000.000000 5000.000000"
 preserveAspectRatio="xMidYMid meet">
<metadata>
Created by potrace 1.16, written by Peter Selinger 2001-2019
</metadata>
<g transform="translate(0.000000,5000.000000) scale(0.100000,-0.100000)"
fill="#000000" stroke="none">
<path d="M25144 49941 c-27 -12 -46 -30 -56 -52 -9 -19 -86 -188 -172 -377
-765 -1682 -1707 -3527 -2751 -5392 -551 -983 -1036 -1818 -1647 -2835 -518
-861 -1193 -1956 -1210 -1963 -4 -2 -8 -8 -8 -13 0 -21 -236 -382 -252 -387
-11 -2 -18 -14 -18 -28 0 -36 -218 -374 -241 -374 -14 0 -19 -7 -19 -30 0 -21
-29 -76 -98 -183 -54 -83 -104 -162 -111 -174 -7 -15 -21 -23 -36 -23 -23 0
-25 -4 -25 -50 0 -45 4 -53 44 -95 41 -41 48 -45 93 -45 26 0 108 18 183 40
74 22 147 40 161 40 15 0 29 4 31 9 3 10 351 121 378 121 9 0 20 4 25 8 6 5
96 37 200 72 105 35 198 67 209 72 10 5 79 34 153 64 105 42 147 54 189 54 51
0 54 1 54 25 0 21 13 31 90 70 62 31 102 45 130 45 36 0 40 3 40 24 0 16 11
32 29 46 l30 21 54 -73 c1634 -2214 2826 -4521 3588 -6942 41 -130 59 -205 59
-241 0 -42 4 -54 18 -57 13 -4 25 -28 40 -84 73 -258 99 -351 153 -549 32
-121 59 -238 59 -261 0 -23 5 -44 11 -46 6 -2 36 -103 66 -223 42 -171 56
-244 60 -327 4 -80 9 -108 19 -108 7 0 15 -4 19 -10 3 -5 26 -106 50 -225 37
-179 45 -234 45 -325 0 -103 1 -110 20 -110 23 0 20 13 66 -245 30 -165 38
-231 41 -377 5 -171 6 -177 27 -180 18 -3 23 -14 33 -83 39 -250 83 -648 83
-745 0 -67 4 -110 10 -110 6 0 10 -15 10 -32 0 -97 41 -149 122 -156 93 -7
128 42 128 183 0 80 33 369 85 745 492 3543 1826 6866 3999 9964 225 321 435
606 447 606 5 0 9 -18 9 -40 l0 -40 64 0 c53 0 74 -6 127 -34 59 -31 64 -37
67 -70 l3 -36 77 0 c69 0 90 -5 205 -51 77 -31 127 -57 127 -65 0 -10 12 -14
38 -14 50 0 362 -109 362 -126 0 -10 13 -14 43 -14 62 0 351 -92 355 -113 3
-13 15 -17 54 -17 28 0 110 -17 191 -41 170 -49 215 -49 259 0 33 37 38 94 12
143 -9 17 -88 143 -175 280 -735 1148 -1593 2545 -2281 3713 -1542 2614 -2881
5155 -3880 7360 -82 182 -163 361 -181 399 -27 59 -37 72 -72 87 -50 23 -60
23 -111 0z m172 -8036 c515 -685 1179 -1365 1900 -1944 71 -57 135 -110 142
-116 11 -10 -10 -58 -117 -266 -72 -140 -193 -382 -270 -539 -819 -1680 -1425
-3562 -1762 -5473 -22 -127 -44 -236 -49 -240 -4 -5 -13 22 -19 60 -199 1260
-433 2251 -783 3313 -335 1017 -769 2046 -1241 2938 -53 101 -97 187 -97 191
0 4 89 80 198 169 716 582 1386 1261 1885 1908 56 73 105 132 108 131 4 -1 51
-60 105 -132z"/>
<path d="M3654 37550 c-54 -22 -82 -107 -52 -163 6 -12 100 -146 208 -297
2032 -2842 4090 -6251 6242 -10340 437 -830 428 -812 428 -864 0 -42 2 -46 25
-46 17 0 29 -9 39 -28 23 -45 52 -65 106 -70 46 -4 52 -2 83 29 30 30 38 51
71 187 21 83 42 152 47 152 5 0 9 18 9 40 0 33 20 133 95 468 3 14 13 22 25
22 19 0 20 7 20 101 0 65 10 164 29 277 17 98 35 224 41 282 16 145 17 150 40
150 19 0 20 7 20 174 0 158 2 175 18 180 28 9 693 73 982 96 2375 183 4648 33
6831 -450 504 -112 988 -235 1005 -256 6 -8 29 -14 51 -14 39 0 441 -110 475
-130 10 -5 24 -10 32 -10 27 0 371 -110 374 -120 2 -5 16 -10 31 -10 31 0 350
-105 365 -120 5 -5 20 -10 32 -10 19 0 294 -93 369 -125 17 -7 84 -32 150 -55
204 -72 525 -201 525 -211 0 -5 10 -9 23 -9 13 0 72 -20 132 -44 97 -39 110
-47 113 -70 3 -24 7 -26 58 -26 38 0 80 -10 135 -31 77 -31 79 -33 79 -65 l0
-34 78 0 c73 0 84 -3 166 -45 131 -66 207 -58 241 27 27 68 4 116 -78 163 -83
47 -297 207 -297 222 0 7 -8 13 -17 13 -9 0 -71 41 -137 92 -124 94 -349 271
-376 294 -8 8 -64 53 -125 101 -181 144 -564 465 -660 554 -16 15 -75 67 -130
116 -444 388 -1021 953 -1495 1463 -1592 1712 -2978 3796 -4020 6045 -167 362
-310 687 -304 696 3 5 16 9 28 9 14 0 26 7 28 18 3 10 41 38 84 64 43 25 124
78 179 117 55 39 108 71 118 71 9 0 17 6 17 13 0 7 66 66 147 132 148 121 414
355 623 549 75 69 123 106 137 106 17 0 23 6 23 24 0 29 90 116 120 116 12 0
20 7 20 18 0 9 9 31 20 47 25 38 26 101 1 141 -25 41 -86 57 -184 48 -40 -3
-198 -10 -352 -14 -154 -5 -485 -18 -735 -29 -2233 -97 -5038 -117 -7215 -51
-1700 51 -3271 149 -4727 295 -365 37 -400 39 -434 25z m9896 -3367 c47 -76
178 -277 291 -448 1095 -1650 2431 -3136 3996 -4448 90 -75 159 -138 155 -141
-5 -3 -84 25 -178 61 -93 36 -248 94 -344 130 -96 35 -180 70 -186 78 -6 8
-25 15 -42 15 -35 0 -355 108 -360 121 -2 5 -16 9 -31 9 -15 0 -67 14 -117 31
-49 16 -197 63 -329 104 -1584 485 -3217 767 -4835 836 -151 7 -278 15 -282
18 -3 3 -16 71 -28 151 -137 919 -421 1963 -746 2737 -24 59 -42 108 -39 111
3 3 90 16 195 28 646 80 1340 239 2015 461 215 70 722 254 755 274 8 4 17 8
20 9 3 0 43 -62 90 -137z"/>
<path d="M46430 37539 c-1163 -124 -2659 -227 -4125 -284 -1028 -39 -1740 -54
-2975 -61 -1638 -10 -3449 22 -4990 88 -865 36 -1153 44 -1227 33 l-53 -8 0
-118 0 -119 42 0 c60 0 98 -38 98 -97 l0 -43 46 0 c41 0 52 -5 98 -47 29 -27
126 -116 216 -199 165 -150 257 -232 377 -332 38 -32 63 -60 63 -72 0 -14 7
-20 23 -20 13 0 42 -14 65 -31 35 -26 42 -36 42 -65 0 -33 1 -34 43 -34 36 0
55 -10 137 -68 52 -38 123 -85 158 -107 53 -32 62 -42 62 -66 0 -28 2 -29 49
-29 28 0 52 -3 55 -8 4 -8 -173 -412 -319 -727 -106 -226 -438 -894 -560
-1125 -663 -1252 -1443 -2459 -2268 -3508 -169 -215 -471 -585 -519 -636 -21
-21 -38 -41 -38 -43 0 -3 -21 -29 -47 -59 -31 -36 -54 -54 -70 -54 -18 0 -23
-5 -23 -27 0 -22 -34 -66 -147 -193 -550 -622 -1223 -1297 -1812 -1819 -96
-85 -120 -101 -148 -101 -30 0 -33 -3 -33 -29 0 -22 -10 -38 -42 -65 -23 -20
-52 -36 -65 -36 -16 0 -23 -6 -23 -19 0 -12 -23 -39 -52 -65 -29 -24 -89 -75
-133 -113 -44 -37 -156 -130 -248 -206 -144 -117 -173 -137 -203 -137 -31 0
-34 -3 -34 -28 0 -22 -11 -36 -50 -65 -27 -20 -56 -37 -65 -37 -8 0 -15 -6
-15 -14 0 -7 -72 -68 -159 -135 -144 -109 -164 -121 -200 -121 -39 0 -41 -2
-41 -30 0 -23 -10 -36 -46 -65 -26 -19 -57 -35 -70 -35 -16 0 -24 -6 -24 -17
0 -17 -24 -35 -137 -106 -107 -68 -64 -217 63 -217 29 0 67 13 130 45 71 36
98 45 140 45 47 0 53 2 56 22 2 18 23 32 98 65 53 23 111 42 132 42 25 1 38 6
40 17 6 32 836 352 1434 554 412 139 999 319 1199 369 22 5 108 28 190 51 864
237 1970 451 2970 574 1786 220 3709 227 5570 21 72 -8 133 -15 138 -15 4 0 7
-81 7 -180 l0 -180 44 0 45 0 5 -42 c31 -244 36 -316 36 -531 l0 -237 45 0
c25 0 45 -1 45 -3 0 -1 11 -56 25 -122 20 -95 25 -150 25 -262 l0 -143 30 0
c37 0 40 -6 75 -160 15 -63 35 -131 45 -150 30 -60 105 -78 166 -41 32 19 21
0 369 666 2226 4255 4419 7898 6462 10733 85 118 158 225 164 239 21 57 0 122
-51 148 -36 19 -87 18 -310 -6z m-9305 -3297 c859 -331 1744 -559 2593 -666
107 -13 195 -26 197 -28 5 -6 -146 -373 -156 -376 -5 -2 -9 -13 -9 -25 0 -26
-117 -357 -131 -372 -5 -5 -9 -17 -9 -27 0 -11 -25 -97 -55 -193 -176 -560
-320 -1176 -418 -1800 l-34 -210 -259 -12 c-1355 -61 -2657 -253 -3929 -578
-159 -41 -337 -86 -395 -101 -58 -15 -114 -31 -125 -35 -11 -5 -119 -37 -240
-73 -121 -35 -305 -92 -410 -125 -120 -39 -206 -61 -236 -61 -36 0 -48 -4 -51
-17 -7 -28 -266 -113 -340 -113 -50 0 -57 -3 -60 -21 -2 -17 -46 -37 -268
-121 -355 -134 -350 -132 -361 -121 -5 5 59 66 164 155 1692 1430 3119 3062
4232 4841 55 87 104 156 110 153 5 -2 91 -36 190 -74z"/>
<path d="M21300 31655 c0 -25 -7 -56 -15 -69 -13 -19 -16 -80 -20 -337 -3
-173 -9 -350 -13 -394 l-7 -80 -37 -3 -36 -3 -5 -377 -4 -377 -41 -250 c-23
-137 -45 -267 -48 -288 -4 -21 -13 -41 -20 -44 -10 -4 -14 -26 -14 -79 0 -42
-15 -155 -36 -266 -48 -257 -51 -286 -28 -330 11 -21 345 -351 784 -774 2076
-2003 2479 -2394 2471 -2398 -4 -3 -65 11 -136 31 -96 28 -129 42 -133 55 -3
15 -15 18 -61 18 -53 0 -110 13 -273 61 -60 18 -68 23 -68 44 0 25 -1 25 -88
25 -66 0 -111 7 -189 29 -56 16 -107 32 -113 36 -5 3 -10 21 -10 40 l0 33
-152 5 c-137 4 -165 8 -268 39 -107 32 -115 37 -118 62 -3 26 -4 26 -89 26
-66 0 -112 7 -200 32 l-113 31 0 34 0 33 -117 0 c-108 1 -130 5 -263 43 -139
40 -145 43 -148 70 l-3 27 -92 0 c-72 0 -116 7 -204 31 l-113 31 0 34 0 34
-122 1 c-115 0 -132 3 -263 42 -122 37 -140 45 -143 65 -3 21 -8 22 -80 22
-61 0 -111 10 -260 52 -141 40 -186 57 -190 70 -3 15 -15 18 -61 18 -32 0
-100 13 -161 30 -129 37 -166 38 -214 5 -20 -14 -130 -105 -244 -203 -408
-350 -436 -372 -476 -372 -33 0 -36 -2 -36 -29 0 -22 -10 -38 -42 -65 -23 -20
-52 -36 -65 -36 -16 0 -23 -6 -23 -19 0 -10 -24 -39 -56 -65 l-56 -46 -79 0
-78 0 -3 -67 -3 -68 -62 -3 -63 -3 0 -44 c0 -55 -33 -85 -91 -85 -37 0 -39 -2
-39 -30 0 -24 -10 -38 -51 -70 -50 -39 -52 -40 -134 -40 l-84 0 -3 -62 -3 -63
-67 -3 -68 -3 0 -49 c0 -71 -17 -80 -152 -80 l-107 0 -3 -67 -3 -68 -68 -3
-68 -3 3 -122 3 -122 60 -38 c33 -21 119 -71 190 -111 74 -42 134 -83 140 -95
6 -12 19 -21 32 -21 13 0 93 -47 179 -105 200 -136 203 -138 204 -152 0 -7 8
-13 18 -13 9 0 38 -16 65 -35 38 -28 47 -41 47 -65 0 -29 2 -30 43 -30 38 -1
56 -11 197 -121 85 -65 156 -126 158 -134 2 -8 10 -15 19 -15 28 0 113 -80
113 -106 0 -20 5 -24 33 -24 28 0 70 -31 292 -217 143 -119 296 -247 339 -286
84 -73 126 -97 175 -97 16 0 352 93 748 206 395 114 763 218 818 232 55 13
108 29 117 33 27 13 891 259 911 259 9 0 25 5 35 10 29 18 1727 499 1733 492
3 -4 -67 -77 -155 -162 -89 -85 -285 -274 -436 -420 -151 -146 -322 -311 -381
-367 l-105 -103 -57 0 -57 0 0 -53 c0 -68 -18 -87 -83 -87 l-47 0 0 -48 c0
-64 -19 -82 -88 -82 l-52 0 0 -48 c0 -63 -20 -82 -83 -82 l-47 0 0 -48 c0 -63
-28 -92 -88 -92 l-42 0 0 -40 c0 -55 -38 -90 -97 -90 l-43 0 0 -43 c0 -57 -38
-97 -93 -97 -36 0 -37 -1 -37 -39 0 -32 -6 -43 -34 -65 -20 -15 -48 -26 -65
-26 -28 0 -31 -3 -31 -33 0 -48 -53 -97 -103 -97 -36 0 -37 -1 -37 -39 0 -33
-6 -44 -37 -70 -22 -18 -49 -31 -65 -31 -24 0 -28 -4 -28 -28 0 -37 -65 -102
-103 -102 -23 0 -27 -4 -27 -29 0 -39 -68 -101 -110 -101 -26 0 -30 -4 -30
-28 0 -34 -75 -112 -108 -112 -16 0 -22 -6 -22 -24 0 -31 -80 -106 -115 -106
-19 0 -25 -5 -25 -23 0 -30 -78 -107 -108 -107 -16 0 -22 -6 -22 -23 0 -25
-86 -117 -110 -117 -9 0 -20 -8 -25 -18 -6 -10 -25 -40 -42 -67 -21 -31 -33
-61 -33 -82 0 -19 16 -118 35 -220 46 -239 116 -659 149 -885 23 -155 26 -208
26 -442 l0 -266 30 0 c25 0 30 -4 34 -32 16 -97 29 -346 32 -597 2 -189 7
-294 15 -313 26 -64 104 -74 209 -28 53 23 83 30 134 30 l66 0 0 34 c0 32 3
34 81 70 57 25 95 36 129 36 43 0 49 3 52 22 2 18 23 31 93 63 84 37 97 40
198 43 l107 4 0 39 c0 38 2 41 48 61 31 14 76 22 135 26 l87 4 0 28 c0 26 7
31 106 69 58 23 117 41 131 41 14 0 31 6 37 14 12 16 300 124 801 300 165 58
315 114 333 123 19 9 42 33 52 53 10 20 100 364 199 765 114 457 187 734 196
741 10 7 15 28 15 58 0 26 20 129 46 229 65 264 63 257 79 257 12 0 15 14 15
61 0 46 66 328 276 1172 152 612 280 1116 284 1120 4 5 33 -97 64 -225 31
-128 61 -246 66 -263 5 -16 36 -139 70 -272 47 -189 60 -259 60 -318 0 -67 2
-75 19 -75 29 0 111 -336 111 -454 0 -79 1 -85 22 -88 19 -3 26 -21 65 -173
34 -138 43 -187 43 -262 0 -87 1 -92 23 -95 20 -3 27 -21 69 -183 37 -144 46
-198 47 -267 1 -80 3 -88 21 -88 21 0 17 11 74 -217 27 -107 36 -163 36 -227
0 -79 1 -85 22 -88 20 -3 31 -42 144 -493 67 -269 130 -518 139 -552 26 -96
45 -110 268 -188 244 -86 596 -213 622 -224 11 -5 76 -29 145 -54 102 -36 126
-48 128 -66 3 -18 10 -21 55 -21 62 0 347 -104 347 -126 0 -9 12 -14 33 -14
17 0 78 -18 135 -41 89 -36 102 -44 102 -65 0 -22 4 -24 54 -24 38 0 80 -10
135 -32 79 -30 81 -32 81 -65 l0 -33 73 0 c51 -1 88 -7 127 -24 55 -22 55 -22
58 -69 l3 -47 90 0 c79 0 100 -4 159 -30 107 -47 170 -38 205 30 12 23 15 75
15 262 0 128 3 243 6 256 4 12 14 22 24 22 17 0 18 22 23 323 4 271 9 351 30
502 51 364 71 488 83 499 6 7 14 57 17 111 3 56 31 236 62 405 74 395 74 394
39 445 -16 22 -91 101 -169 175 -77 75 -266 257 -420 407 -154 149 -317 306
-362 348 -46 43 -83 84 -83 91 0 8 -6 14 -12 14 -7 0 -42 29 -78 64 -36 35
-91 88 -122 116 -32 29 -58 59 -58 66 0 8 -6 14 -13 14 -19 0 -117 103 -117
123 0 10 -8 17 -20 17 -27 0 -120 87 -120 111 0 12 -7 19 -18 19 -25 0 -112
91 -112 118 0 17 -6 22 -25 22 -37 0 -105 65 -105 101 0 25 -4 29 -27 29 -35
0 -113 74 -113 107 0 18 -6 23 -25 23 -15 0 -41 15 -65 36 -31 29 -40 43 -40
70 0 30 -3 33 -35 36 -31 3 -95 61 -579 528 -300 289 -539 526 -532 528 12 3
229 -56 346 -93 25 -8 245 -72 490 -141 245 -70 452 -130 460 -134 8 -4 47
-15 85 -24 156 -37 315 -89 315 -102 0 -10 15 -14 53 -15 30 0 114 -18 197
-43 127 -36 145 -44 148 -64 3 -20 9 -22 77 -22 60 0 111 -11 266 -55 105 -30
193 -55 195 -55 2 0 4 -7 4 -15 0 -11 12 -15 48 -15 28 0 132 -24 257 -61 116
-33 233 -67 262 -74 28 -8 295 -84 591 -170 297 -85 554 -155 571 -155 50 0
90 23 191 111 403 351 1077 889 1113 889 9 0 17 6 17 13 0 14 224 177 433 316
128 86 294 186 430 261 65 36 104 64 113 82 21 41 17 91 -11 132 -15 22 -25
51 -25 71 l0 35 -51 0 c-78 0 -89 10 -89 79 l0 58 -92 7 c-77 5 -98 10 -130
32 -31 22 -38 33 -38 60 0 33 -1 34 -44 34 -64 0 -96 29 -96 85 l0 44 -62 3
-63 3 -3 68 -3 67 -82 0 c-87 0 -102 6 -159 58 -16 14 -28 36 -28 49 0 19 -5
23 -32 23 -18 0 -45 11 -65 26 -29 22 -33 31 -33 70 l0 44 -51 0 c-77 0 -89
10 -89 75 l0 55 -64 0 c-64 0 -66 1 -130 56 -36 30 -66 59 -66 65 0 5 -5 9
-11 9 -6 0 -38 21 -70 48 -40 32 -59 54 -59 70 0 17 -6 22 -27 22 -22 0 -84
49 -273 211 -135 116 -258 220 -275 230 -39 24 -83 24 -175 -2 -41 -11 -97
-27 -125 -34 -27 -8 -151 -43 -274 -79 -212 -63 -230 -66 -328 -66 l-103 0 0
-29 c0 -20 -6 -31 -17 -35 -158 -47 -245 -66 -309 -66 -68 0 -73 -2 -76 -22
-3 -20 -20 -28 -148 -65 -133 -38 -155 -42 -267 -42 l-123 -1 0 -34 c0 -24 -5
-36 -17 -40 -158 -47 -245 -66 -309 -66 -67 0 -73 -2 -76 -22 -3 -20 -21 -28
-148 -64 -132 -39 -155 -43 -262 -43 l-117 -1 -3 -32 c-3 -33 -4 -33 -113 -65
-85 -25 -130 -32 -197 -32 -86 -1 -88 -1 -88 -25 0 -15 -7 -27 -17 -30 -199
-58 -309 -86 -339 -86 -20 0 -42 -6 -48 -14 -6 -8 -108 -42 -226 -75 -118 -33
-285 -81 -370 -105 -85 -25 -158 -42 -162 -38 -3 4 143 151 325 326 183 176
520 501 749 723 328 317 422 403 442 403 20 0 26 5 26 23 0 27 87 117 113 117
10 0 17 8 17 18 0 25 91 112 118 112 14 0 22 6 22 18 0 20 99 122 118 122 7 0
12 6 12 14 0 7 26 37 58 66 31 28 86 81 122 116 36 35 71 64 78 64 6 0 12 6
12 13 0 8 30 42 68 77 37 35 128 123 202 194 74 72 207 201 295 286 400 386
475 463 486 501 10 32 3 84 -50 375 -74 411 -132 777 -171 1090 -25 193 -30
271 -30 443 0 194 -1 209 -18 213 -16 5 -20 20 -25 119 -4 63 -7 207 -7 321 0
225 -5 250 -52 274 -23 12 -28 21 -28 49 l0 35 -125 0 -124 0 -3 -62 -3 -63
-132 -3 -132 -3 -3 -67 -3 -67 -132 -3 -132 -3 -3 -62 -3 -62 -127 -3 -127 -3
-3 -52 c-3 -51 -4 -52 -43 -63 -23 -7 -106 -13 -197 -13 l-158 -1 0 -64 c0
-77 3 -76 -157 -76 l-113 0 0 -44 c0 -42 -2 -45 -42 -61 -26 -11 -80 -20 -135
-23 l-93 -4 0 -28 c0 -26 -6 -30 -87 -60 -49 -18 -108 -35 -133 -38 -25 -3
-50 -11 -55 -19 -6 -7 -99 -45 -207 -83 -206 -72 -241 -89 -260 -124 -7 -12
-73 -266 -148 -566 -126 -504 -138 -545 -158 -548 -21 -3 -22 -8 -22 -88 0
-64 -9 -120 -36 -227 -57 -228 -53 -217 -74 -217 -18 0 -20 -7 -20 -81 0 -63
-10 -122 -45 -261 -25 -99 -47 -184 -51 -189 -3 -5 -14 -9 -25 -9 -17 0 -19
-8 -19 -97 -1 -81 -8 -126 -43 -263 -38 -148 -44 -165 -64 -168 -22 -3 -23 -8
-23 -91 0 -73 -9 -126 -55 -312 -31 -123 -60 -237 -65 -254 -5 -16 -37 -145
-71 -285 -34 -140 -66 -259 -70 -264 -5 -6 -9 -20 -9 -33 0 -25 -111 -476
-116 -471 -1 2 -39 148 -83 325 -57 225 -81 341 -81 383 0 46 -3 60 -15 60
-16 0 -14 -7 -79 257 -26 100 -46 203 -46 229 0 29 -5 51 -15 58 -20 16 -115
402 -115 471 0 40 -4 55 -14 55 -19 0 -116 394 -116 473 0 43 -3 57 -15 57
-16 0 -14 -7 -79 257 -41 164 -46 194 -46 298 l0 115 -29 0 -29 0 -36 148
c-20 81 -36 169 -36 196 0 33 -5 53 -16 61 -11 8 -53 160 -129 469 -62 252
-121 475 -130 497 -10 21 -28 45 -41 54 -13 8 -112 46 -221 85 -530 186 -528
185 -531 208 -3 20 -10 22 -60 23 -36 0 -84 10 -132 28 -73 27 -75 28 -78 64
l-3 37 -94 0 c-86 0 -103 3 -200 41 -99 38 -105 42 -105 69 l0 28 -87 4 c-59
4 -104 12 -135 26 -46 20 -48 23 -48 62 l0 40 -95 0 c-61 0 -108 5 -130 14
-33 14 -35 17 -35 65 l0 51 -112 0 c-161 0 -158 -1 -158 76 l0 63 -132 3 -133
3 -3 63 -3 62 -124 0 -125 0 0 -45z"/>
<path d="M10600 24307 c-14 -7 -36 -29 -49 -50 -17 -25 -32 -37 -48 -37 -21 0
-23 -4 -23 -47 0 -40 -19 -84 -152 -337 -2243 -4308 -4491 -8051 -6546 -10905
-85 -118 -163 -229 -173 -245 -46 -76 -6 -172 76 -182 22 -3 202 10 400 30
1962 194 3815 291 6225 327 1671 25 4306 -14 5850 -87 179 -9 444 -19 590 -24
146 -4 306 -11 357 -15 114 -8 168 6 194 49 25 41 24 103 -1 141 -11 17 -20
38 -20 48 0 11 -8 17 -23 17 -30 0 -117 88 -117 118 0 16 -6 22 -23 22 -16 0
-61 35 -138 106 -259 241 -564 508 -706 617 -35 27 -63 55 -63 63 0 8 -8 14
-17 14 -10 0 -62 32 -117 70 -54 39 -135 91 -179 117 -44 26 -82 56 -85 65 -2
11 -14 18 -28 18 -12 0 -25 4 -28 9 -13 20 368 845 639 1386 986 1962 2168
3693 3584 5245 458 502 1125 1159 1591 1568 52 46 109 96 125 112 73 67 422
362 593 500 103 82 194 156 202 164 22 19 279 220 396 309 56 42 109 77 118
77 9 0 16 6 16 13 0 14 205 167 296 220 82 48 106 98 79 164 -34 86 -110 95
-241 28 -82 -42 -93 -45 -166 -45 l-78 0 0 -33 c0 -32 -3 -35 -77 -65 -57 -23
-94 -32 -135 -32 -53 0 -57 -1 -60 -26 -3 -22 -16 -31 -111 -70 -59 -24 -117
-44 -129 -44 -11 0 -26 -6 -32 -14 -10 -13 -501 -205 -601 -236 -22 -6 -53
-18 -70 -25 -72 -32 -348 -125 -370 -125 -13 0 -25 -4 -27 -9 -4 -12 -338
-121 -370 -121 -14 0 -28 -5 -30 -11 -3 -10 -346 -119 -377 -119 -9 0 -21 -4
-27 -9 -16 -16 -438 -131 -478 -131 -21 0 -44 -6 -50 -14 -17 -22 -515 -148
-1021 -260 -1300 -286 -2556 -445 -4005 -507 -355 -15 -1395 -15 -1755 0 -705
30 -1368 79 -1985 149 l-65 7 -3 178 c-2 168 -3 177 -22 177 -23 0 -24 5 -40
150 -6 58 -25 185 -41 283 -18 112 -29 214 -29 277 0 93 -1 100 -20 100 -12 0
-22 8 -25 23 -50 216 -95 437 -95 468 0 21 -4 39 -9 39 -5 0 -26 69 -47 153
-33 133 -41 156 -70 185 -25 25 -40 32 -70 32 -22 0 -50 -6 -64 -13z m7393
-3393 c3 -3 -69 -69 -161 -146 -1667 -1396 -3103 -3029 -4232 -4813 -73 -115
-134 -211 -135 -212 -1 -2 -89 31 -196 73 -252 98 -762 268 -1009 338 -560
158 -1075 265 -1593 330 -103 13 -190 25 -192 28 -3 3 15 53 40 112 325 777
606 1807 745 2736 12 80 24 148 26 151 2 3 88 9 191 13 1711 62 3465 374 5183
920 96 31 185 56 197 56 12 0 23 4 25 8 5 14 327 122 363 122 18 0 35 6 38 13
3 8 58 33 124 56 179 65 536 202 553 212 18 10 25 11 33 3z"/>
<path d="M39666 24299 c-38 -30 -51 -60 -81 -189 -35 -154 -38 -160 -75 -160
l-30 0 0 -142 c0 -113 -5 -168 -25 -263 -14 -66 -25 -121 -25 -122 0 -2 -20
-3 -45 -3 l-45 0 0 -237 c0 -215 -5 -287 -36 -530 l-5 -43 -45 0 -44 0 0 -179
0 -179 -42 -6 c-79 -11 -531 -55 -778 -75 -2457 -202 -4768 -52 -7035 455
-276 62 -806 193 -945 234 -36 10 -162 46 -280 79 -585 164 -1284 399 -1893
636 -404 157 -532 212 -535 229 -2 11 -14 16 -38 16 -32 0 -191 60 -221 83 -7
5 -13 18 -13 28 0 16 -8 19 -55 19 -45 0 -69 8 -141 45 -124 65 -201 58 -239
-21 -33 -69 -9 -119 82 -173 88 -53 103 -65 103 -85 0 -10 8 -16 24 -16 13 0
44 -16 70 -35 36 -29 46 -42 46 -65 0 -28 2 -30 41 -30 37 0 56 -12 200 -122
87 -67 159 -128 159 -135 0 -7 7 -13 16 -13 9 0 38 -17 65 -37 36 -29 48 -45
49 -65 0 -25 4 -28 33 -28 27 0 59 -21 178 -117 139 -112 339 -279 421 -352
21 -18 38 -42 38 -52 0 -13 7 -19 23 -19 13 0 42 -16 65 -36 32 -27 42 -43 42
-65 0 -26 3 -29 34 -29 29 0 56 -20 207 -156 575 -517 1227 -1174 1748 -1759
116 -131 151 -176 151 -197 0 -23 5 -28 24 -28 17 0 37 -17 70 -57 26 -32 69
-83 96 -113 26 -30 116 -138 200 -240 1330 -1624 2431 -3427 3336 -5460 67
-151 120 -278 118 -282 -3 -5 -27 -8 -55 -8 -48 0 -49 -1 -49 -29 0 -26 -9
-35 -62 -67 -35 -21 -106 -69 -158 -106 -82 -58 -101 -68 -137 -68 -42 0 -43
-1 -43 -34 0 -29 -7 -39 -42 -65 -23 -17 -52 -31 -65 -31 -16 0 -23 -6 -23
-20 0 -12 -25 -40 -62 -71 -105 -88 -184 -157 -372 -329 -300 -275 -268 -250
-320 -250 l-46 0 0 -48 c0 -42 -4 -51 -30 -70 -19 -14 -44 -22 -70 -22 l-40 0
0 -119 0 -118 53 -9 c28 -4 99 -7 157 -6 202 5 628 21 955 36 558 25 1559 56
2580 78 738 16 3253 16 3930 0 2227 -53 3942 -153 5730 -333 121 -13 233 -19
248 -15 63 15 98 80 80 145 -5 20 -91 149 -190 287 -2026 2814 -4237 6487
-6433 10689 -354 678 -342 657 -374 676 -41 25 -97 24 -130 -2z m-6969 -3493
c136 -51 273 -103 303 -114 40 -14 56 -25 58 -41 3 -19 10 -21 62 -21 73 0
333 -87 338 -114 3 -12 15 -16 48 -16 28 0 139 -29 297 -79 139 -44 324 -100
412 -126 88 -25 169 -50 180 -54 11 -4 58 -18 105 -30 47 -11 207 -53 355 -91
1337 -345 2665 -539 4085 -598 l164 -7 18 -120 c95 -631 249 -1307 433 -1888
30 -97 55 -184 55 -195 0 -10 4 -22 9 -27 14 -15 131 -346 131 -372 0 -12 4
-23 9 -25 10 -3 161 -370 155 -377 -2 -2 -90 -15 -196 -28 -654 -82 -1340
-238 -1998 -455 -276 -91 -617 -214 -786 -284 -6 -3 -39 42 -74 98 -1101 1777
-2601 3498 -4267 4895 -95 80 -173 149 -173 154 0 18 33 8 277 -85z"/>
<path d="M25121 22924 c-31 -22 -51 -73 -51 -129 0 -25 -4 -45 -10 -45 -6 0
-10 -43 -10 -110 0 -97 -44 -495 -83 -745 -10 -69 -15 -80 -33 -83 -21 -3 -22
-9 -27 -180 -3 -146 -11 -212 -41 -377 -46 -258 -43 -245 -66 -245 -19 0 -20
-7 -20 -110 0 -91 -8 -146 -45 -325 -24 -119 -47 -220 -50 -225 -4 -6 -12 -10
-19 -10 -10 0 -15 -28 -19 -107 -4 -84 -17 -156 -60 -328 -30 -120 -60 -221
-66 -223 -6 -2 -11 -23 -11 -46 0 -36 -69 -318 -114 -466 -8 -25 -38 -130 -67
-234 -39 -137 -58 -190 -70 -193 -13 -4 -18 -21 -22 -76 -10 -142 -342 -1104
-628 -1820 -718 -1797 -1755 -3639 -2986 -5305 l-84 -113 -29 21 c-19 14 -30
30 -30 46 0 21 -4 24 -40 24 -28 0 -68 14 -130 45 -77 39 -90 49 -90 70 0 23
-3 25 -52 25 -41 0 -86 13 -198 57 -80 31 -146 60 -148 65 -2 4 -12 8 -22 8
-20 0 -354 114 -382 130 -10 5 -24 10 -32 10 -25 0 -371 112 -374 121 -2 5
-16 9 -30 9 -15 0 -90 18 -167 41 -173 50 -214 49 -261 -5 -17 -20 -36 -36
-43 -36 -7 0 -11 -20 -11 -55 0 -50 2 -55 23 -55 18 0 44 -34 135 -176 78
-122 112 -184 112 -205 0 -22 5 -29 19 -29 23 0 241 -339 241 -374 0 -14 7
-26 18 -28 14 -4 252 -366 252 -384 0 -3 11 -20 24 -37 31 -42 416 -662 776
-1252 1890 -3097 3456 -5985 4645 -8565 100 -217 215 -471 256 -564 44 -99 87
-182 105 -202 28 -30 37 -34 82 -34 73 0 94 26 182 221 1467 3270 3604 7129
6215 11224 257 403 268 422 273 477 4 53 2 59 -26 88 -42 42 -93 40 -262 -10
-81 -24 -155 -40 -186 -40 -41 0 -53 -4 -56 -17 -6 -22 -293 -113 -356 -113
-29 0 -42 -4 -42 -14 0 -17 -311 -126 -362 -126 -25 0 -38 -5 -40 -16 -2 -9
-52 -34 -128 -64 -111 -45 -133 -50 -202 -50 l-77 0 -3 -37 c-3 -35 -8 -41
-63 -70 -50 -27 -71 -32 -127 -33 l-68 0 0 -40 c0 -22 -4 -40 -9 -40 -22 0
-469 627 -791 1109 -828 1242 -1524 2518 -2083 3821 -757 1764 -1276 3605
-1551 5495 -50 345 -96 720 -106 866 -4 70 -13 137 -20 148 -28 54 -130 79
-179 45z m119 -6201 c0 -5 16 -107 35 -228 21 -132 35 -256 35 -311 0 -83 2
-92 20 -97 11 -3 20 -13 20 -24 0 -10 23 -134 50 -276 28 -142 50 -281 50
-309 0 -31 5 -55 14 -62 14 -12 116 -450 116 -502 0 -16 4 -34 9 -40 15 -14
121 -437 121 -479 0 -21 6 -43 14 -49 7 -6 25 -56 40 -111 89 -326 244 -823
363 -1164 82 -237 250 -697 263 -722 4 -9 51 -121 103 -250 89 -221 228 -544
304 -709 19 -41 53 -115 76 -165 22 -49 143 -295 269 -545 l229 -455 -38 -30
c-668 -534 -1287 -1129 -1784 -1715 -93 -110 -304 -373 -353 -441 l-18 -24
-21 29 c-582 776 -1190 1407 -1955 2030 -100 82 -182 153 -182 157 0 5 34 73
76 151 112 209 374 739 493 998 674 1465 1178 3028 1505 4662 36 182 126 669
126 684 0 8 20 4 20 -3z"/>
</g>
</svg>
