<?xml version="1.0" encoding="UTF-8" standalone="no"?>
<!DOCTYPE svg PUBLIC "-//W3C//DTD SVG 20010904//EN" "http://www.w3.org/TR/2001/REC-SVG-20010904/DTD/svg10.dtd">
<svg version="1.0" xmlns="http://www.w3.org/2000/svg" width="128.000000pt" height="128.000000pt" viewBox="0 0 128.000000 128.000000" preserveAspectRatio="xMidYMid meet">
<metadata>
Created by potrace 1.10, written by Peter Selinger 2001-2011
</metadata>
<g transform="translate(0.000000,128.000000) scale(0.050000,-0.050000)" fill="#000000" stroke="none">
<path d="M1023 2075 c-204 -42 -194 -311 17 -463 125 -90 138 -120 79 -183 -54 -58 -67 -50 -183 107 -74 100 -140 137 -231 131 -14 -1 -52 -3 -85 -4 -135 -6 -195 -208 -98 -332 l43 -53 -43 -40 c-57 -54 -60 -240 -4 -296 108 -108 307 -67 420 85 114 154 127 162 181 104 59 -63 47 -91 -87 -190 -157 -115 -199 -348 -79 -435 49 -36 228 -33 283 5 40 28 48 28 88 0 65 -45 246 -41 293 6 110 110 62 317 -100 433 -122 88 -135 118 -76 181 54 58 67 50 181 -104 113 -152 312 -193 420 -85 48 48 53 228 7 294 -28 40 -28 48 0 88 46 66 41 246 -7 294 -108 108 -307 67 -420 -85 -114 -154 -127 -162 -181 -104 -59 63 -46 93 79 183 180 129 221 411 67 455 -118 33 -161 32 -235 -6 -55 -28 -86 -34 -103 -20 -46 38 -138 52 -226 34z m300 -564 c18 -169 113 -234 277 -189 19 5 30 -6 30 -32 0 -35 -15 -41 -113 -46 -144 -8 -185 -48 -190 -188 -3 -111 -32 -159 -71 -120 -13 13 -22 63 -19 110 9 142 -127 253 -237 194 -26 -14 -43 -11 -60 10 -36 44 10 97 60 70 108 -58 246 52 237 190 -10 172 67 173 86 1z"/>
</g>
</svg>