<?xml version="1.0" standalone="no"?>
<!DOCTYPE svg PUBLIC "-//W3C//DTD SVG 20010904//EN"
 "http://www.w3.org/TR/2001/REC-SVG-20010904/DTD/svg10.dtd">
<svg version="1.0" xmlns="http://www.w3.org/2000/svg"
 width="5000.000000pt" height="5000.000000pt" viewBox="0 0 5000.000000 5000.000000"
 preserveAspectRatio="xMidYMid meet">
<metadata>
Created by potrace 1.16, written by Peter Selinger 2001-2019
</metadata>
<g transform="translate(0.000000,5000.000000) scale(0.100000,-0.100000)"
fill="#000000" stroke="none">
<path d="M25110 49582 c-40 -20 -337 -229 -825 -580 -4161 -2996 -7690 -6064
-10596 -9212 -1224 -1326 -2351 -2683 -3351 -4035 -390 -528 -897 -1246 -923
-1309 -41 -99 -21 -711 40 -1191 132 -1034 457 -2195 987 -3513 603 -1504
1462 -3186 2596 -5085 175 -292 195 -317 261 -317 18 0 45 7 60 15 16 8 91 88
167 177 2399 2822 5153 5327 8354 7600 880 625 2044 1392 2933 1932 l127 78
37 -27 c75 -58 364 -297 513 -424 1612 -1383 2904 -2991 3918 -4877 107 -198
350 -688 458 -920 l95 -207 -34 -36 c-19 -20 -125 -135 -237 -256 -936 -1012
-2730 -2821 -4827 -4864 -350 -341 -372 -368 -357 -435 9 -41 36 -93 151 -294
413 -722 940 -1329 1555 -1795 261 -198 307 -218 385 -175 45 24 235 167 868
652 3032 2325 5415 4368 6968 5971 170 176 318 334 328 350 38 61 28 99 -87
339 -189 394 -503 1002 -770 1492 -2047 3754 -4847 7356 -8414 10822 -184 179
-348 333 -365 343 -34 21 -86 25 -118 7 -28 -14 -494 -371 -1012 -773 -2570
-1997 -5463 -4406 -8620 -7177 -203 -179 -371 -322 -373 -318 -1 4 33 122 77
261 1388 4408 4205 8890 8461 13464 497 534 1616 1688 1631 1683 10 -3 245
-262 643 -708 7172 -8026 12846 -17151 16981 -27310 75 -184 143 -345 151
-357 33 -52 113 -72 164 -41 13 7 190 213 394 458 2191 2623 3677 4585 4428
5845 125 211 138 237 138 285 0 47 -17 84 -171 358 -2347 4173 -5472 8318
-9364 12421 -709 748 -1902 1953 -2610 2637 -3123 3014 -6490 5877 -10400
8839 -137 104 -265 197 -284 207 -45 23 -87 23 -131 0z"/>
<path d="M7275 31893 c-11 -2 -31 -9 -44 -16 -14 -7 -192 -212 -396 -457
-2214 -2655 -3676 -4585 -4427 -5845 -125 -211 -138 -237 -138 -285 0 -47 17
-84 171 -358 2347 -4173 5472 -8318 9364 -12421 709 -748 1902 -1953 2610
-2637 2963 -2860 6182 -5613 9810 -8390 904 -692 896 -686 974 -669 32 7 331
214 891 618 4157 2997 7663 6048 10561 9187 1224 1326 2351 2683 3351 4035
390 528 897 1246 923 1309 41 99 21 711 -40 1191 -132 1034 -457 2195 -987
3513 -603 1504 -1462 3186 -2596 5085 -175 292 -195 317 -261 317 -18 0 -45
-7 -60 -15 -16 -8 -91 -88 -167 -177 -2399 -2822 -5153 -5327 -8354 -7600
-880 -625 -2044 -1392 -2933 -1932 l-127 -78 -37 27 c-75 58 -364 297 -513
424 -1612 1383 -2904 2991 -3918 4877 -107 198 -350 688 -458 920 l-95 207 34
36 c19 20 125 135 237 256 936 1012 2730 2821 4827 4864 350 341 372 368 357
435 -9 41 -36 93 -151 294 -413 722 -940 1329 -1555 1795 -261 198 -307 218
-385 175 -45 -24 -235 -167 -868 -652 -3032 -2325 -5415 -4368 -6968 -5971
-170 -176 -318 -333 -328 -350 -38 -61 -28 -99 87 -339 189 -394 503 -1002
770 -1492 2047 -3754 4847 -7356 8414 -10822 184 -179 348 -333 365 -343 34
-21 86 -25 118 -7 28 14 494 371 1012 773 2570 1997 5463 4406 8620 7177 204
179 371 322 373 318 1 -4 -33 -122 -77 -261 -1388 -4408 -4205 -8890 -8461
-13464 -497 -534 -1616 -1688 -1631 -1683 -5 2 -88 91 -185 198 -7407 8176
-13197 17414 -17443 27829 -82 203 -150 354 -163 368 -26 25 -72 41 -103 36z"/>
</g>
</svg>
